<svg xmlns="http://www.w3.org/2000/svg" width="32" height="32" viewBox="0 0 32 32" fill="none">
  <path d="M16 0C12.8355 0 9.74207 0.938383 7.11088 2.69649C4.4797 4.45459 2.42894 6.95345 1.21793 9.87706C0.00693237 12.8007 -0.309921 16.0177 0.307443 19.1214C0.924806 22.2251 2.44866 25.0761 4.6863 27.3137C6.92394 29.5513 9.77486 31.0752 12.8786 31.6926C15.9823 32.3099 19.1993 31.9931 22.1229 30.7821C25.0466 29.5711 27.5454 27.5203 29.3035 24.8891C31.0616 22.2579 32 19.1645 32 16C31.9953 11.758 30.3081 7.69101 27.3086 4.69144C24.309 1.69186 20.242 0.00465855 16 0ZM16 30.72C13.0887 30.72 10.2427 29.8567 7.82201 28.2392C5.40132 26.6218 3.51462 24.3228 2.4005 21.6331C1.28638 18.9434 0.994873 15.9837 1.56285 13.1283C2.13082 10.2729 3.53277 7.65002 5.59139 5.59139C7.65002 3.53276 10.2729 2.13081 13.1283 1.56284C15.9837 0.994866 18.9434 1.28637 21.6331 2.40049C24.3228 3.51461 26.6218 5.40131 28.2392 7.822C29.8567 10.2427 30.72 13.0887 30.72 16C30.7158 19.9027 29.1636 23.6443 26.4039 26.4039C23.6443 29.1635 19.9027 30.7158 16 30.72ZM23.3936 7.7472L13.1536 12.8672C13.0302 12.9299 12.9299 13.0302 12.8672 13.1536L7.74721 23.3936C7.69836 23.4912 7.67529 23.5997 7.68019 23.7087C7.68509 23.8178 7.7178 23.9237 7.7752 24.0166C7.8326 24.1094 7.91279 24.186 8.00815 24.2391C8.1035 24.2922 8.21086 24.3201 8.32001 24.32C8.41936 24.3198 8.51735 24.2969 8.60641 24.2528L18.8464 19.1328C18.9698 19.0701 19.0701 18.9698 19.1328 18.8464L24.2528 8.6064C24.3132 8.48618 24.3342 8.34999 24.3128 8.21717C24.2913 8.08435 24.2286 7.96166 24.1335 7.86653C24.0383 7.7714 23.9156 7.70867 23.7828 7.68724C23.65 7.66582 23.5138 7.6868 23.3936 7.7472ZM18.08 18.08L9.74721 22.24L13.92 13.92L22.2528 9.76L18.08 18.08Z" fill="white"/>
</svg>