<svg xmlns="http://www.w3.org/2000/svg" width="32" height="32" viewBox="0 0 32 32" fill="none">
  <g clip-path="url(#clip0_59_4049)">
    <path d="M15.9997 30.6667C24.0998 30.6667 30.6663 24.1002 30.6663 16.0001C30.6663 7.89989 24.0998 1.3334 15.9997 1.3334M15.9997 30.6667C7.8995 30.6667 1.33301 24.1002 1.33301 16.0001C1.33301 7.89989 7.8995 1.3334 15.9997 1.3334M15.9997 30.6667C19.9997 30.6667 21.333 24.0001 21.333 16.0001C21.333 8.00007 19.9997 1.3334 15.9997 1.3334M15.9997 30.6667C11.9997 30.6667 10.6663 24.0001 10.6663 16.0001C10.6663 8.00007 11.9997 1.3334 15.9997 1.3334M2.66634 21.3334H29.333M2.66634 10.6667H29.333" stroke="white"/>
  </g>
  <defs>
    <clipPath id="clip0_59_4049">
      <rect width="32" height="32" fill="white"/>
    </clipPath>
  </defs>
</svg>